HIERARCHY
ROOT Hips
{
	OFFSET 0.00000 0.00000 0.00000
	CHANNELS 6 Xposition Yposition Zposition Yrotation Zrotation Xrotation 
	JOINT Lumbar
	{
		OFFSET 0 0 0
		CHANNELS 3 Zrotation Xrotation Yrotation
		JOINT Neck
		{
			OFFSET 0.00 0.2701 0.00
			CHANNELS 3 Zrotation Xrotation Yrotation
			End Site
			{
				OFFSET 0.00 0.1379 0.00
			}
		}
		JOINT RightShoulder
		{
			OFFSET 0.0119 0.2289 0.1181
			CHANNELS 3 Zrotation Xrotation Yrotation
			JOINT RightElbow
			{
				OFFSET 0.00 -0.1475 0.00
				CHANNELS 2 Zrotation Yrotation
				JOINT RightWrist
				{
					OFFSET 0.00 -0.1605 0.00
					CHANNELS 2 Zrotation Xrotation
					End Site
					{
						OFFSET 0.0040 -0.1068 0.0006
					}
				}
			}
		}
		JOINT LeftShoulder
		{
			OFFSET 0.0119 0.2289 -0.1181
			CHANNELS 3 Zrotation Xrotation Yrotation
			JOINT LeftElbow
			{
				OFFSET 0.00 -0.1475 0.00
				CHANNELS 2 Zrotation Yrotation
				JOINT LeftWrist
				{
					OFFSET 0.00 -0.1605 0.00
					CHANNELS 2 Zrotation Xrotation
					End Site
					{
						OFFSET 0.0040 -0.1068 -0.0006
					}
				}
			}
		}
	}
	JOINT RightHip
	{
		OFFSET 0.0316 -0.0424 0.0458
		CHANNELS 3 Zrotation Xrotation Yrotation
		JOINT RightKnee
		{
			OFFSET 0.00 -0.2438 0.00
			CHANNELS 1 Zrotation
			JOINT RightAnkle
			{
				OFFSET 0.00 -0.2449 0.00
				CHANNELS 3 Zrotation Xrotation Yrotation
				End Site
				{
					OFFSET 0.1237 -0.0542 0.0051
				}
			}
		}
	}
	JOINT LeftHip
	{
		OFFSET 0.0316 -0.0424 -0.0458
		CHANNELS 3 Zrotation Xrotation Yrotation
		JOINT LeftKnee
		{
			OFFSET 0.00 -0.2438 0.00
			CHANNELS 1 Zrotation
			JOINT LeftAnkle
			{
				OFFSET 0.00 -0.2449 0.00
				CHANNELS 3 Zrotation Xrotation Yrotation
				End Site
				{
					OFFSET 0.1237 -0.0542 -0.0051
				}
			}
		}
	}
}
MOTION
Frames: 30
Frame Time: 0.02
-0.00067 -0.00104 -0.00068 28.8626 -18.73858 -3.48607 43.79867 -1.29906 -8.03996 -10.97201 4.92289 -0.39814 -20.69293 -9.23433 6.83117 23.68062 58.95441 -1.45439 -4.81088 -21.1191 8.31224 -7.71328 27.82441 -85.223 9.04011 1.85962 28.72782 -2.62548 -9.73524 -19.97416 -5.93113 -3.15011 -2.21208 32.3888 4.15714 1.20034 -24.39587 -6.38235 2.14961 1.71569
-0.0003 -0.00072 -0.0004 29.03664 -18.75897 -3.44669 43.87318 -1.34441 -8.03616 -10.99289 4.83381 -0.3986 -20.71034 -8.65576 4.49505 23.90324 66.72299 0.54074 -3.56894 -21.21619 8.09206 -6.80888 28.13156 -89.73561 10.43076 1.18204 28.71494 -2.57004 -9.33875 -19.955 -5.95878 -3.2073 -2.24965 32.41002 4.14512 1.03811 -24.37612 -6.40277 2.12909 1.7049
7e-05 -0.00041 -0.00012 29.21098 -18.7792 -3.40742 43.94746 -1.38966 -8.03224 -11.01387 4.74456 -0.39906 -20.72844 -8.07969 2.16933 24.12575 74.45827 2.52741 -2.33235 -21.31298 7.87295 -5.90851 28.43823 -94.22823 11.81512 0.50744 28.70194 -2.51476 -8.94356 -19.93593 -5.98639 -3.26441 -2.28716 32.43122 4.13308 0.87626 -24.35646 -6.42317 2.10855 1.69409
0.00044 -0.0001 0.00015 29.38455 -18.79951 -3.36815 44.02174 -1.43487 -8.02845 -11.0347 4.6557 -0.39952 -20.7459 -7.50308 -0.15883 24.3478 82.20082 4.51586 -1.09458 -21.40979 7.65352 -5.00715 28.74452 -98.72577 13.20109 -0.16788 28.68907 -2.45948 -8.54831 -19.91683 -6.01395 -3.32144 -2.32463 32.45237 4.12109 0.71452 -24.33678 -6.44353 2.08808 1.68332
0.00082 0.00022 0.00043 29.55769 -18.82001 -3.32879 44.09624 -1.48016 -8.02478 -11.05542 4.5671 -0.39997 -20.76243 -6.92356 -2.49923 24.56969 89.98176 6.51405 0.14937 -21.50685 7.43285 -4.10116 29.05111 -103.24611 14.59429 -0.84658 28.67638 -2.40405 -8.15171 -19.89764 -6.04155 -3.3785 -2.36214 32.47357 4.10913 0.5524 -24.317 -6.46389 2.06765 1.67258
0.00118 0.00053 0.00071 29.73461 -18.83965 -3.28973 44.17003 -1.52532 -8.02029 -11.07697 4.47646 -0.40044 -20.78383 -6.35465 -4.79438 24.79348 97.62162 8.47665 1.37056 -21.60305 7.21699 -3.21259 29.35789 -107.68054 15.96008 -1.5126 28.66271 -2.34908 -7.7595 -19.87883 -6.06921 -3.43573 -2.39966 32.49477 4.09693 0.39113 -24.29759 -6.4844 2.04685 1.66164
0.00156 0.00084 0.00099 29.90326 -18.861 -3.25006 44.24521 -1.5707 -8.0176 -11.09673 4.39018 -0.40088 -20.79533 -5.76548 -7.17612 25.01331 105.53209 10.50742 2.63545 -21.70099 6.99178 -2.29036 29.66399 -112.28121 17.37894 -2.20313 28.65106 -2.29325 -7.35898 -19.85924 -6.09666 -3.49254 -2.43709 32.51586 4.08526 0.22841 -24.27745 -6.50456 2.02685 1.65112
0.00193 0.00116 0.00127 30.08042 -18.8808 -3.21103 44.31905 -1.61587 -8.013 -11.11829 4.29963 -0.40136 -20.81609 -5.19414 -9.48154 25.23658 113.20186 12.47767 3.86141 -21.79711 6.77506 -1.39842 29.97065 -116.73174 18.74992 -2.87155 28.6375 -2.23817 -6.96596 -19.84043 -6.12437 -3.5498 -2.47466 32.53722 4.07301 0.06687 -24.25802 -6.52508 2.00605 1.64018
0.00229 0.00146 0.00154 30.26471 -18.89861 -3.17245 44.39149 -1.66085 -8.00704 -11.1415 4.20472 -0.40182 -20.84778 -4.6479 -11.68004 25.46509 120.54383 14.36506 5.03458 -21.89191 6.56921 -0.54632 30.27848 -120.98698 20.05839 -3.5111 28.62173 -2.18418 -6.5826 -19.82235 -6.15216 -3.60739 -2.51222 32.55825 4.06041 -0.09269 -24.23928 -6.5459 1.98452 1.62884
0.00271 0.0018 0.00184 30.39812 -18.92758 -3.13028 44.4727 -1.70713 -8.01181 -11.15356 4.13744 -0.4022 -20.81545 -3.96716 -14.45276 25.66658 129.67095 16.70249 6.49587 -21.99703 6.3023 0.52655 30.58106 -126.33051 21.71453 -4.31122 28.61905 -2.12444 -6.14514 -19.7994 -6.17879 -3.66243 -2.54928 32.57918 4.05091 -0.26201 -24.21606 -6.56459 1.96792 1.62015
0.003 0.00207 0.00209 30.64507 -18.93318 -3.09636 44.53495 -1.7505 -7.99212 -11.19017 4.01032 -0.40286 -20.91882 -3.56382 -16.04033 25.92302 135.09665 18.10761 7.35932 -22.07862 6.16324 1.13911 30.8937 -129.40087 22.64496 -4.77613 28.58853 -2.07649 -5.82088 -19.78713 -6.20833 -3.72323 -2.58774 32.60162 4.03418 -0.41178 -24.2026 -6.58801 1.94049 1.60567
0.00298 0.00223 0.00224 31.15777 -18.87316 -3.07988 44.54796 -1.78694 -7.91891 -11.28617 3.72978 -0.40341 -21.39342 -3.98352 -14.11923 26.34816 129.71174 16.7824 6.48043 -22.109 6.38695 0.43075 31.24256 -125.9811 21.49944 -4.2825 28.48323 -2.06415 -5.8186 -19.80128 -6.24227 -3.79697 -2.62728 32.61825 4.00233 -0.50102 -24.21385 -6.62261 1.88681 1.57689
0.00283 0.00232 0.00236 31.79389 -18.7903 -3.0728 44.54111 -1.82011 -7.81826 -11.40807 3.3871 -0.4044 -22.00449 -4.67161 -11.05042 26.82469 120.7182 14.54932 5.01812 -22.113 6.73699 -0.72918 31.59986 -120.32467 19.64072 -3.45918 28.35 -2.06309 -5.92838 -19.8267 -6.27994 -3.87705 -2.66872 32.63876 3.96191 -0.57337 -24.23536 -6.66222 1.82177 1.54207
0.00271 0.00242 0.0025 32.40233 -18.71844 -3.06459 44.54192 -1.8543 -7.72175 -11.52367 3.06586 -0.4058 -22.55388 -5.19484 -8.68093 27.2666 113.81939 12.84854 3.89175 -22.12067 7.02123 -1.64461 31.94774 -115.85755 18.16375 -2.81228 28.2281 -2.05472 -5.97883 -19.84881 -6.31805 -3.95606 -2.71108 32.66332 3.92288 -0.65607 -24.25345 -6.70082 1.7595 1.50889
0.0027 0.00259 0.00261 32.88739 -18.64253 -3.04247 44.5497 -1.89114 -7.66181 -11.61725 2.77338 -0.40468 -23.10214 -5.89428 -5.58014 27.75808 105.0469 10.6552 2.47334 -22.1645 7.3405 -2.72648 32.31945 -110.65951 16.44263 -2.05345 28.11058 -2.05544 -6.06296 -19.86325 -6.34658 -4.02732 -2.74591 32.6612 3.89616 -0.72144 -24.26603 -6.73439 1.70673 1.4801
0.00242 0.00261 0.00277 33.66331 -18.5714 -3.05238 44.53669 -1.92084 -7.51734 -11.76154 2.40603 -0.40884 -23.68507 -6.29707 -3.70371 28.1561 99.25456 9.25419 1.51484 -22.1254 7.61753 -3.56912 32.6432 -106.44959 15.06023 -1.44837 27.97898 -2.04009 -6.10604 -19.8964 -6.39666 -4.11638 -2.79686 32.71826 3.83955 -0.82643 -24.29288 -6.77924 1.6322 1.44108
0.00145 0.00228 0.00304 35.17254 -18.50417 -3.1414 44.4842 -1.9385 -7.16179 -12.05037 1.84964 -0.42816 -24.32873 -5.75492 -5.73016 28.30342 103.18187 10.42909 2.06061 -21.87558 7.74019 -3.63591 32.83496 -105.55989 14.7969 -1.36072 27.80134 -1.976 -5.98688 -19.97795 -6.49912 -4.25161 -2.89212 32.91517 3.72206 -0.97661 -24.35354 -6.85741 1.49414 1.37228
0.00019 0.0018 0.00336 36.97755 -18.44543 -3.26362 44.40878 -1.94767 -6.71898 -12.38723 1.21981 -0.45267 -25.00193 -4.91536 -8.98828 28.35094 110.13261 12.40504 3.07433 -21.54107 7.81743 -3.44753 32.97763 -105.73418 14.89747 -1.43712 27.61326 -1.89582 -5.82709 -20.07811 -6.62423 -4.40469 -3.00344 33.17589 3.57155 -1.17724 -24.42884 -6.9462 1.33568 1.29392
-0.00098 0.00137 0.00368 38.67314 -18.39245 -3.37531 44.33561 -1.9564 -6.30618 -12.69507 0.62172 -0.47436 -25.66373 -4.25218 -11.51896 28.43139 115.2868 13.90195 3.8116 -21.23754 7.91961 -3.37838 33.14119 -105.39312 14.82576 -1.43045 27.43893 -1.82381 -5.69918 -20.17 -6.74311 -4.55068 -3.1073 33.422 3.42279 -1.40309 -24.49936 -7.02781 1.19071 1.22195
-0.00197 0.00098 0.00392 40.26762 -18.29764 -3.46823 44.29727 -1.98372 -5.93408 -13.03445 0.0275 -0.49797 -26.32537 -3.42732 -14.69891 28.56708 122.0498 15.84028 4.79012 -20.96458 8.00712 -3.30941 33.31126 -105.10866 14.75875 -1.44788 27.22495 -1.74782 -5.51611 -20.26119 -6.84521 -4.69308 -3.21213 33.60682 3.32799 -1.43642 -24.56205 -7.1192 1.0278 1.14126
-0.0034 0.00049 0.00433 42.14117 -18.29279 -3.60782 44.1799 -1.96967 -5.45569 -13.31884 -0.59032 -0.51884 -26.98803 -2.86139 -16.85735 28.5621 126.28838 17.07679 5.39454 -20.60846 8.11392 -3.17583 33.4557 -104.98761 14.77706 -1.45876 27.09226 -1.67709 -5.43988 -20.3585 -6.98729 -4.84651 -3.31845 33.93528 3.11522 -1.86871 -24.64472 -7.19306 0.89722 1.0764
-0.00596 -0.00024 0.00511 44.71364 -18.52983 -3.86981 43.86124 -1.84911 -4.71605 -13.44304 -1.26368 -0.5305 -27.6846 -3.11614 -15.69151 28.2044 122.28836 16.0457 4.76875 -20.04251 8.27462 -2.90439 33.54427 -105.07401 14.95092 -1.41 27.17976 -1.61645 -5.6412 -20.46478 -7.23696 -5.03115 -3.4272 34.63732 2.56692 -3.51186 -24.77699 -7.21226 0.8646 1.05941
-0.00895 -0.00107 0.00606 47.55565 -18.85798 -4.17734 43.46197 -1.6862 -3.87126 -13.50975 -1.95594 -0.53927 -28.37333 -3.63583 -13.49368 27.70698 115.74779 14.30689 3.76682 -19.39724 8.45772 -2.57828 33.60843 -105.29676 15.20006 -1.35096 27.35076 -1.56301 -5.9554 -20.5772 -7.52566 -5.22527 -3.53646 35.48315 1.90485 -5.53159 -24.92969 -7.21387 0.86515 1.05869
-0.01175 -0.00185 0.00696 50.27363 -19.14756 -4.46284 43.09205 -1.53893 -3.0667 -13.60005 -2.63426 -0.54962 -29.03981 -4.00927 -11.91308 27.2649 110.75076 12.9885 2.99668 -18.78755 8.63665 -2.28958 33.68147 -105.45698 15.41239 -1.29917 27.48831 -1.51189 -6.23609 -20.68892 -7.79457 -5.41168 -3.64402 36.2679 1.30606 -7.30002 -25.07361 -7.22618 0.84742 1.04901
-0.01452 -0.00263 0.00773 53.00993 -19.42576 -4.75489 42.75139 -1.40645 -2.28808 -13.70158 -3.33951 -0.55905 -29.81638 -4.47511 -9.76942 26.8507 104.26597 11.29393 1.99335 -18.17214 8.78823 -1.94024 33.76103 -105.65346 15.64773 -1.24183 27.60692 -1.43722 -6.4428 -20.7923 -8.07256 -5.61311 -3.75836 37.03656 0.65541 -9.41098 -25.2138 -7.22838 0.84017 1.04441
-0.01745 -0.00345 0.00881 55.76639 -19.74881 -5.04396 42.3318 -1.23339 -1.43523 -13.76693 -3.99001 -0.5696 -30.36138 -4.82343 -8.51178 26.35044 100.17343 10.1875 1.37064 -17.55685 9.00325 -1.70619 33.82327 -105.79547 15.84864 -1.19176 27.78441 -1.41277 -6.82785 -20.91448 -8.34107 -5.78522 -3.85846 37.87245 0.08847 -10.89435 -25.36909 -7.24616 0.82215 1.03472
-0.02076 -0.00439 0.01066 58.52576 -20.17683 -5.31078 41.7073 -0.95742 -0.37276 -13.73336 -4.50274 -0.58424 -30.26764 -4.71259 -10.17592 25.61479 103.86143 11.02429 1.97476 -16.91106 9.38184 -1.81288 33.83007 -105.73257 15.93265 -1.1618 28.10906 -1.53199 -7.70382 -21.08512 -8.56968 -5.87448 -3.91911 38.85582 -0.23851 -10.57868 -25.53906 -7.32161 0.74057 0.99367
-0.02421 -0.00538 0.01281 61.29139 -20.64624 -5.57322 41.00781 -0.64248 0.75444 -13.66752 -4.95585 -0.60002 -29.9407 -4.48819 -12.72354 24.80457 109.93381 12.44798 2.95807 -16.27803 9.8239 -2.03503 33.822 -105.60878 15.97806 -1.13922 28.48934 -1.70049 -8.75043 -21.27472 -8.78795 -5.9337 -3.96531 39.9025 -0.47343 -9.61458 -25.72824 -7.41165 0.65135 0.94919
-0.02758 -0.00634 0.01484 64.04501 -21.0943 -5.83956 40.34679 -0.34607 1.83193 -13.6248 -5.42422 -0.61506 -29.72179 -4.36392 -14.70965 24.04902 114.52773 13.50097 3.70909 -15.67244 10.24236 -2.20221 33.83121 -105.52186 16.04193 -1.11408 28.84072 -1.84184 -9.70234 -21.45686 -9.01367 -6.00637 -4.01808 40.92133 -0.73809 -8.92835 -25.92209 -7.48778 0.58327 0.91542
-0.03105 -0.00731 0.01682 66.8501 -21.55591 -6.1001 39.66322 -0.0442 2.99977 -13.54452 -5.94377 -0.63093 -29.49598 -4.0466 -17.32021 23.19777 120.67206 14.9614 4.69586 -14.92334 10.6434 -2.38614 33.79943 -105.40233 16.10575 -1.08524 29.20969 -2.00279 -10.73165 -21.63444 -9.22957 -6.08041 -4.07096 41.93975 -1.05854 -8.32102 -26.05721 -7.5928 0.44401 0.84473
